<?xml version="1.0" encoding="UTF-8" standalone="no"?>
<svg
   width="30"
   height="30"
   viewBox="0 0 30 30"
   fill="none"
   version="1.1"
   id="svg456"
   sodipodi:docname="github.svg"
   inkscape:version="1.2.2 (732a01da63, 2022-12-09)"
   xmlns:inkscape="http://www.inkscape.org/namespaces/inkscape"
   xmlns:sodipodi="http://sodipodi.sourceforge.net/DTD/sodipodi-0.dtd"
   xmlns="http://www.w3.org/2000/svg"
   xmlns:svg="http://www.w3.org/2000/svg">
  <defs
     id="defs460" />
  <sodipodi:namedview
     id="namedview458"
     pagecolor="#ffffff"
     bordercolor="#000000"
     borderopacity="0.25"
     inkscape:showpageshadow="2"
     inkscape:pageopacity="0.0"
     inkscape:pagecheckerboard="0"
     inkscape:deskcolor="#d1d1d1"
     showgrid="false"
     inkscape:zoom="26.8"
     inkscape:cx="15.05597"
     inkscape:cy="9.0858209"
     inkscape:window-width="1920"
     inkscape:window-height="991"
     inkscape:window-x="-9"
     inkscape:window-y="-9"
     inkscape:window-maximized="1"
     inkscape:current-layer="svg456" />
  <path
     d="M 15,0.03459488 C 6.7125,0.03459488 2.18932e-6,6.909737 2.18932e-6,15.398025 -0.00169914,18.623223 0.988222,21.767097 2.82933,24.383595 c 1.8411,2.6165 4.43989,4.572779 7.42767,5.591274 0.75,0.133662 1.0305,-0.327242 1.0305,-0.731301 0,-0.364113 -0.0195,-1.573217 -0.0195,-2.860675 C 7.5,27.094222 6.525,25.44265 6.225,24.577687 6.0555,24.13522 5.325,22.772481 4.6875,22.406832 4.1625,22.119535 3.4125,21.408207 4.668,21.389771 c 1.182,-0.01997 2.025,1.113851 2.307,1.574753 1.35,2.322955 3.507,1.670008 4.368,1.267486 0.132,-0.998625 0.525,-1.670007 0.957,-2.054094 -3.3375,-0.384086 -6.825,-1.709952 -6.825,-7.586473 0,-1.671544 0.5805,-3.052718 1.5375,-4.129696 -0.15,-0.384086 -0.675,-1.95882 0.15,-4.0712948 0,0 1.2555,-0.4025224 4.125,1.5762903 1.2211,-0.3471218 2.4828,-0.5218248 3.75,-0.5192846 1.275,0 2.55,0.1720706 3.75,0.5177483 2.868,-1.9972489 4.125,-1.5732175 4.125,-1.5732175 0.825,2.1124747 0.3,3.6872083 0.15,4.0712943 0.9555,1.075442 1.5375,2.43818 1.5375,4.12816 0,5.896493 -3.5055,7.202387 -6.843,7.586473 0.543,0.47934 1.0125,1.401147 1.0125,2.842239 0,2.054094 -0.0195,3.705665 -0.0195,4.224949 0,0.402523 0.282,0.881862 1.032,0.728228 2.9775,-1.029659 5.5649,-2.989728 7.3979,-5.604383 C 29.0128,21.754397 29.9991,18.616873 30,15.398025 30,6.909737 23.2875,0.03459488 15,0.03459488 Z"
     fill="#FFFCF3"
     id="path454"
     style="fill:#ffffff;stroke-width:1.01205" />
</svg>
