<?xml version="1.0" encoding="UTF-8" standalone="no"?>
<svg
   width="40"
   height="40"
   viewBox="0 0 40 40"
   fill="none"
   version="1.1"
   id="svg863"
   sodipodi:docname="linkedin.svg"
   inkscape:version="1.2.2 (732a01da63, 2022-12-09)"
   xmlns:inkscape="http://www.inkscape.org/namespaces/inkscape"
   xmlns:sodipodi="http://sodipodi.sourceforge.net/DTD/sodipodi-0.dtd"
   xmlns="http://www.w3.org/2000/svg"
   xmlns:svg="http://www.w3.org/2000/svg">
  <defs
     id="defs867" />
  <sodipodi:namedview
     id="namedview865"
     pagecolor="#ffffff"
     bordercolor="#000000"
     borderopacity="0.25"
     inkscape:showpageshadow="2"
     inkscape:pageopacity="0.0"
     inkscape:pagecheckerboard="0"
     inkscape:deskcolor="#d1d1d1"
     showgrid="false"
     inkscape:zoom="20.1"
     inkscape:cx="13.159204"
     inkscape:cy="23.059701"
     inkscape:window-width="1920"
     inkscape:window-height="991"
     inkscape:window-x="-9"
     inkscape:window-y="-9"
     inkscape:window-maximized="1"
     inkscape:current-layer="svg863" />
  <path
     d="M 34.06759,34.086667 H 28.160188 V 24.8044 c 0,-2.213333 -0.04442,-5.062133 -3.081249,-5.062133 -3.078989,0 -3.548884,2.4088 -3.548884,4.9 v 9.4444 H 15.620259 V 15 h 5.674783 v 2.6 h 0.07754 c 0.793622,-1.497733 2.722146,-3.082267 5.603893,-3.082267 5.985075,0 7.093377,3.9512 7.093377,9.0912 V 34.086667 Z M 8.9480986,12.388933 C 8.4970894,12.389467 8.0504701,12.3008 7.6336434,12.128 7.2169491,11.9552 6.8382933,11.7016 6.5195685,11.381867 6.20079,11.062133 5.9480995,10.6824 5.7759824,10.264533 5.6038782,9.8465333 5.515738,9.3988 5.5166158,8.9466667 c 4.39e-4,-0.6804 0.2021093,-1.3453334 0.5795286,-1.9108 0.377418,-0.5654667 0.9135875,-1.006 1.5408234,-1.266 0.6271035,-0.2598667 1.3171156,-0.3276 1.9826558,-0.1944 0.6655404,0.1330666 1.2768164,0.4612 1.7564204,0.9425333 0.479604,0.4814667 0.80599,1.0945333 0.937928,1.762 0.131937,0.6673333 0.06358,1.3589333 -0.196577,1.987333 -0.260018,0.6284 -0.700253,1.165467 -1.264713,1.543067 -0.564592,0.3776 -1.2260092,0.578933 -1.9045834,0.578533 z M 11.909514,34.086667 H 5.9843299 V 15 H 11.911775 V 34.086667 Z M 37.026876,0 C 51.45769,0 0.07462687,0 0.07462687,0 c 0,0 0,1.2889333 0,2.8822667 V 37.117733 c 0,1.593334 0,2.882267 0,2.882267 H 39.975124 c 0,0 0,-1.288933 0,-2.882267 V 2.8822667 c 0,-1.5933334 0,-2.8822667 0,-2.8822667 z"
     fill="#FFFCF3"
     id="path861"
     style="fill:#ffffff;stroke-width:1.33168" />
</svg>
